<?xml version="1.0" standalone="no"?>
<!DOCTYPE svg PUBLIC "-//W3C//DTD SVG 20010904//EN"
 "http://www.w3.org/TR/2001/REC-SVG-20010904/DTD/svg10.dtd">
<svg version="1.0" xmlns="http://www.w3.org/2000/svg"
 width="300.000000pt" height="300.000000pt" viewBox="0 0 300.000000 300.000000"
 preserveAspectRatio="xMidYMid meet">
<metadata>
Created by potrace 1.10, written by Peter Selinger 2001-2011
</metadata>
<g transform="translate(0.000000,300.000000) scale(0.100000,-0.100000)"
fill="#000000" stroke="none">
<path d="M1315 2911 l60 -6 -82 -13 c-447 -70 -855 -427 -1001 -877 -61 -187
-80 -440 -47 -631 45 -253 165 -491 343 -676 195 -202 418 -326 692 -385 119
-25 382 -25 500 0 274 59 492 179 685 378 186 191 305 426 351 689 23 133 15
390 -15 514 -96 395 -365 726 -721 889 -107 49 -217 84 -313 99 l-82 13 60 6
c33 3 -64 6 -215 6 -151 0 -248 -3 -215 -6z m408 -36 c269 -40 526 -174 719
-373 545 -562 471 -1466 -158 -1929 -222 -163 -469 -243 -754 -243 -358 0
-667 130 -916 386 -362 371 -463 932 -254 1409 63 143 148 265 269 386 157
157 299 246 507 315 184 62 390 79 587 49z"/>
<path d="M820 2528 c0 -5 8 -8 18 -8 35 0 42 -21 42 -131 l0 -107 -30 -12
c-92 -38 -199 -151 -252 -267 -28 -61 -32 -80 -36 -184 -5 -126 7 -189 54
-281 34 -67 132 -168 203 -208 l61 -35 -3 -220 c-2 -220 -2 -220 -24 -223 -13
-2 -23 -8 -23 -14 0 -6 60 -9 178 -6 165 3 180 5 227 28 84 42 118 126 81 199
-21 40 -40 53 -99 66 l-52 12 37 7 c50 9 88 55 88 107 0 36 3 40 49 63 58 30
179 125 242 192 81 85 138 162 285 385 79 120 166 240 193 268 158 162 423 57
425 -169 1 -113 -62 -199 -173 -236 -35 -11 -68 -15 -102 -11 -60 7 -66 -8 -6
-17 81 -12 170 19 229 81 91 95 91 271 0 366 -74 78 -210 104 -306 58 -66 -33
-120 -98 -293 -358 -85 -128 -158 -235 -163 -238 -5 -3 -12 0 -16 6 -4 8 -3 9
4 5 7 -4 12 -3 12 3 0 10 -19 26 -24 20 -2 -2 -6 -17 -10 -34 -5 -22 -4 -26 4
-15 9 13 10 13 10 0 0 -18 -80 -104 -88 -95 -4 3 0 10 8 15 13 9 13 10 0 11
-10 0 -9 3 5 10 20 9 20 9 0 6 -15 -2 -20 -10 -20 -35 0 -28 -10 -41 -65 -88
-64 -54 -155 -119 -182 -129 -7 -3 -20 8 -30 25 -33 58 -90 73 -280 78 -113 3
-168 1 -168 -6 0 -6 10 -12 23 -14 18 -2 23 -10 25 -46 l3 -43 -58 36 c-229
142 -315 432 -198 671 51 104 122 177 243 248 9 6 12 -25 12 -139 l0 -146 -32
-14 c-31 -13 -27 -14 72 -14 79 0 99 3 80 10 -13 6 -28 15 -32 22 -4 7 -8 60
-8 118 0 91 3 108 19 123 18 17 22 13 114 -116 56 -79 105 -139 121 -146 15
-7 53 -12 84 -11 l57 1 -31 13 c-35 15 -64 50 -142 167 -50 74 -53 77 -85 71
-26 -4 -40 0 -63 20 -28 25 -29 25 -10 46 11 12 17 23 14 26 -3 3 -19 -10 -36
-30 -17 -19 -34 -35 -37 -35 -3 0 -5 16 -5 35 0 29 4 35 23 37 12 0 34 2 50 3
23 2 26 -1 21 -17 -13 -42 55 -68 76 -29 13 25 6 43 -24 61 l-24 15 81 88 c62
67 90 91 117 96 29 7 22 9 -43 12 -44 2 -81 1 -84 -3 -2 -5 7 -8 21 -8 14 0
28 -4 31 -10 8 -13 -135 -177 -160 -184 -11 -2 -35 -7 -52 -10 l-33 -5 0 89
c0 91 11 120 46 120 8 0 14 3 14 8 0 4 -45 7 -100 7 -55 0 -100 -3 -100 -7z
m336 -1147 c30 -18 64 -84 51 -98 -10 -10 -126 -15 -181 -9 l-56 7 0 53 c0 29
3 56 7 59 3 4 38 7 77 7 52 0 79 -5 102 -19z m-5 -124 l61 10 -6 -31 c-15 -72
-58 -96 -173 -96 l-63 0 0 63 0 64 60 -10 c39 -6 81 -6 121 0z m-2 -140 c61
-17 86 -52 85 -122 -1 -62 -20 -96 -67 -126 -26 -16 -47 -19 -112 -17 l-80 3
-3 138 -3 137 68 -1 c37 0 88 -6 112 -12z"/>
<path d="M1415 2297 c-69 -27 -68 -26 -55 -110 7 -43 16 -77 20 -77 4 0 10 28
12 61 4 54 9 66 36 90 56 50 142 36 168 -28 33 -79 -15 -160 -110 -184 -55
-14 -51 -29 7 -29 43 0 101 -28 124 -59 34 -47 20 -151 -27 -196 -36 -35 -108
-45 -144 -21 -33 21 -48 49 -61 116 l-12 55 -22 -65 -22 -65 28 -22 c36 -29
106 -53 154 -53 21 0 63 9 93 21 157 58 164 240 12 289 l-40 13 37 19 c50 25
71 60 71 118 0 59 -21 93 -74 120 -45 23 -145 26 -195 7z"/>
<path d="M777 1647 c-21 -33 -22 -32 8 -32 26 0 29 7 16 39 -7 17 -8 16 -24
-7z"/>
<path d="M866 1645 c-4 -15 -5 -30 -1 -33 3 -3 5 0 5 8 0 10 3 10 15 0 8 -7
15 -9 15 -4 0 5 3 20 6 34 5 20 3 22 -5 10 -9 -12 -13 -13 -20 -2 -6 10 -10 7
-15 -13z"/>
<path d="M1037 1663 c-4 -3 -7 -17 -7 -30 0 -18 5 -23 23 -22 16 1 18 2 5 6
-16 4 -16 6 -3 19 8 9 15 20 15 25 0 10 -23 12 -33 2z"/>
<path d="M1161 1653 c-6 -10 -11 -12 -11 -5 0 20 -16 13 -28 -13 -7 -15 -8
-25 -2 -25 6 0 10 6 10 13 0 9 3 8 9 -2 6 -10 10 -10 16 -1 6 9 10 9 16 -1 6
-10 9 -4 9 19 0 36 -4 40 -19 15z"/>
<path d="M1236 1654 c-3 -9 -6 -23 -5 -32 0 -11 2 -12 6 -4 2 6 11 12 18 12
14 0 27 25 18 34 -12 11 -31 6 -37 -10z"/>
<path d="M1330 1655 c-15 -18 -6 -45 13 -45 20 0 40 27 33 45 -7 19 -30 19
-46 0z"/>
<path d="M1546 1654 c-11 -28 -6 -44 12 -43 10 0 12 3 5 6 -10 3 -9 8 2 20 8
8 15 19 15 24 0 15 -27 10 -34 -7z"/>
<path d="M1730 1644 c-13 -34 -13 -34 13 -34 18 0 19 2 7 10 -10 6 -11 10 -2
10 6 0 12 9 12 20 0 28 -19 25 -30 -6z"/>
<path d="M1825 1656 c-3 -9 -7 -23 -10 -32 -4 -11 1 -15 18 -12 16 2 22 10 22
27 0 28 -23 40 -30 17z"/>
<path d="M1438 1634 c3 -19 7 -22 13 -12 7 10 11 11 17 0 6 -9 12 -6 20 13 7
15 8 25 2 25 -6 0 -10 -6 -10 -12 0 -8 -3 -9 -8 -3 -4 6 -14 11 -23 13 -13 2
-15 -4 -11 -24z"/>
<path d="M962 1558 c-24 -24 -9 -54 22 -42 24 9 19 23 -5 17 -16 -4 -20 -2
-17 8 3 8 15 13 27 12 13 -2 20 1 16 7 -8 14 -28 13 -43 -2z"/>
<path d="M1056 1551 c-6 -16 -4 -26 5 -32 18 -11 39 8 38 35 0 19 -1 19 -11
-4 l-11 -25 -7 25 -6 25 -8 -24z"/>
<path d="M1160 1556 c0 -8 6 -17 13 -19 6 -3 3 -6 -7 -6 -15 -1 -17 -4 -9 -12
6 -6 16 -8 22 -5 15 10 14 36 -1 36 -9 0 -8 4 2 10 13 8 12 10 -2 10 -10 0
-18 -6 -18 -14z"/>
<path d="M1343 1563 c-15 -6 -17 -39 -3 -48 16 -10 51 15 48 33 -3 17 -24 24
-45 15z"/>
<path d="M1446 1555 c-10 -27 -8 -30 24 -31 25 -1 30 2 30 22 0 25 -15 33 -23
12 -4 -10 -8 -10 -15 0 -7 11 -10 10 -16 -3z"/>
<path d="M1646 1554 c-9 -24 -7 -34 7 -31 26 5 38 47 13 47 -8 0 -17 -7 -20
-16z"/>
<path d="M1380 1180 c0 -5 10 -10 23 -10 30 0 41 -9 61 -48 l17 -34 -50 -116
c-28 -65 -70 -164 -94 -222 -37 -88 -49 -107 -75 -120 -17 -8 -32 -18 -32 -21
0 -4 29 -6 65 -6 36 0 65 4 65 9 0 4 -6 8 -14 8 -32 0 -34 25 -7 92 14 36 28
69 31 71 3 3 56 7 119 8 l114 3 29 -73 c31 -80 27 -101 -18 -101 -13 0 -24 -4
-24 -8 0 -4 52 -7 115 -7 63 0 115 3 115 8 0 4 -9 7 -19 7 -35 0 -65 55 -171
313 l-105 257 -72 0 c-42 0 -73 -4 -73 -10z m159 -237 c28 -68 51 -125 51
-128 0 -3 -48 -5 -106 -5 -81 0 -105 3 -101 13 3 6 27 65 54 129 26 64 48 116
49 115 1 -1 25 -57 53 -124z"/>
<path d="M1878 2913 c39 -2 105 -2 145 0 39 1 7 3 -73 3 -80 0 -112 -2 -72 -3z"/>
</g>
</svg>
